PathFileType	4	(X/Y/Z)	G:\TennisProject\Miami_Dimitrov_Sinner_masked_Sports2D\Miami_Dimitrov_Sinner_masked_Sports2D_m_person02.trc
DataRate	CameraRate	NumFrames	NumMarkers	Units	OrigDataRate	OrigDataStartFrame	OrigNumFrames
25	25	13	22	m	25	436	499
Frame#	Time	Hip			RHip			RKnee			RAnkle			RBigToe			RSmallToe			RHeel			LHip			LKnee			LAnkle			LBigToe			LSmallToe			LHeel			Neck			Head			Nose			RShoulder			RElbow			RWrist			LShoulder			LElbow			LWrist		
		X1	Y1	Z1	X2	Y2	Z2	X3	Y3	Z3	X4	Y4	Z4	X5	Y5	Z5	X6	Y6	Z6	X7	Y7	Z7	X8	Y8	Z8	X9	Y9	Z9	X10	Y10	Z10	X11	Y11	Z11	X12	Y12	Z12	X13	Y13	Z13	X14	Y14	Z14	X15	Y15	Z15	X16	Y16	Z16	X17	Y17	Z17	X18	Y18	Z18	X19	Y19	Z19	X20	Y20	Z20	X21	Y21	Z21	X22	Y22	Z22
436	17.44	22.03285532119174	2.052832113984859	0.0	21.937222132673153	2.040572670546671	0.0	21.905183828020967	1.693678240378399	0.0	21.875441677501257	1.316594472729336	0.0	21.882882829313445	1.250899805139549	0.0	21.834430632827146	1.2508545919907634	0.0	21.872502096045842	1.2762172004154864	0.0	22.11964590615095	2.0352467068654185	0.0	22.125020921631727	1.690618415743324	0.0	22.123681482245193	1.3143724755056378	0.0	22.145975691804804	1.2545197825530925	0.0	22.175539673419397	1.2561122335207906	0.0	22.098651973950723	1.2757098751891034	0.0	22.05414244961986	2.556332075212986	0.0	22.058626017936202	2.784211605135103	0.0	22.05607742923846	2.654815377001475	0.0	21.8851723169837	2.465572765345185	0.0	21.8440844106703	2.2674137988957628	0.0	21.9686263552669	2.183342156353987	0.0	22.215622512503593	2.4586944517828764	0.0	22.23408736650233	2.2495760377801335	0.0	22.117226081116065	2.172693629559686	0.0
437	17.48	22.033472221841016	2.0500811308546405	0.0	21.93647943744625	2.0358985705911463	0.0	21.905044361323625	1.6933066426197432	0.0	21.873616685900814	1.3164517189984553	0.0	21.88360703461366	1.2497909515639003	0.0	21.835847823181624	1.2492682322025266	0.0	21.872834370061117	1.278852812134824	0.0	22.11965743021025	2.031555238445482	0.0	22.12197628462429	1.6900233826168864	0.0	22.12230961369105	1.3145188465277144	0.0	22.147860085000197	1.2539765508686214	0.0	22.174789433777633	1.2548066193112677	0.0	22.096955408144083	1.2741510195600216	0.0	22.051685102412254	2.557697087800479	0.0	22.058296341158137	2.7829348539897425	0.0	22.05460339762529	2.6560675339218065	0.0	21.883640421415592	2.466567262421719	0.0	21.84147990407714	2.2658360773976414	0.0	21.963827404512774	2.174353395457819	0.0	22.214981561948186	2.4581371324693544	0.0	22.23410680430906	2.2496989196240444	0.0	22.11774812063776	2.1720972844320756	0.0
438	17.52	22.034239234953922	2.0473294978193444	0.0	21.9351288821449	2.0323663551133517	0.0	21.904302652024697	1.6934224913241103	0.0	21.871687958402383	1.3188423714024329	0.0	21.883075671500873	1.2494568477975438	0.0	21.836449181889435	1.2478783237188815	0.0	21.87179275287415	1.2808387514271709	0.0	22.120503821648057	2.0300277950008834	0.0	22.120462301695987	1.6900402929946505	0.0	22.121032646980535	1.3160990425907237	0.0	22.1506050729061	1.2519453734755717	0.0	22.17453702069964	1.253639974937426	0.0	22.095699345895042	1.272952425131942	0.0	22.04997172409576	2.5585730777041094	0.0	22.056941597813655	2.7806841127178177	0.0	22.05430059485384	2.657672958268976	0.0	21.88268427924757	2.4666659272547844	0.0	21.83828800781354	2.2633720973704547	0.0	21.958371814539777	2.1663310961018905	0.0	22.21318121019155	2.458290675512108	0.0	22.232991768942608	2.2499379743628207	0.0	22.117813042677067	2.171198347858056	0.0
439	17.56	22.034457061551876	2.04888573612465	0.0	21.935467281870732	2.034696055909729	0.0	21.90423683348314	1.692116331866524	0.0	21.872029572074133	1.3182841113432517	0.0	21.879974411285232	1.2494614199065504	0.0	21.83262470165129	1.247847616711205	0.0	21.87112350102885	1.2775827337384136	0.0	22.12017254983833	2.0325789918173083	0.0	22.122747620174025	1.6891340651600604	0.0	22.120720309371805	1.3152611454859529	0.0	22.14727186087059	1.2498811939517482	0.0	22.176265830610852	1.254174349896684	0.0	22.09438813164508	1.2730409385173493	0.0	22.051120830893836	2.5560939773864404	0.0	22.055779370725116	2.777704432744304	0.0	22.05306638997599	2.654876848891377	0.0	21.884211401962027	2.4660206870493853	0.0	21.838438488680552	2.263236201584704	0.0	21.957314148789408	2.163680098929585	0.0	22.21293328389791	2.4587728847127845	0.0	22.232082333168428	2.24805046306051	0.0	22.115920172868186	2.167705494483404	0.0
440	17.6	22.033896201775995	2.051762405982275	0.0	21.93579854384305	2.039566690951599	0.0	21.904169054636977	1.6918543043237095	0.0	21.871317556829386	1.3181240977566007	0.0	21.874477289296365	1.2489936629041882	0.0	21.824713877934673	1.2490405627932561	0.0	21.870956760280958	1.2744686268322327	0.0	22.11848767727816	2.035889777086566	0.0	22.12407327620698	1.6887667523608745	0.0	22.121203653723928	1.3140262853790812	0.0	22.14197778831384	1.2492329400487892	0.0	22.177192015070084	1.2543453118365822	0.0	22.093238098695387	1.2728007646523047	0.0	22.051784130844972	2.554961940215049	0.0	22.05463898888331	2.776395122752114	0.0	22.049280866941963	2.6524969698345155	0.0	21.883888203881128	2.466406148514764	0.0	21.83836294360746	2.2642137276382237	0.0	21.95930557699072	2.163640622523091	0.0	22.2124630139795	2.4591781400053234	0.0	22.230780638477427	2.2466684959268703	0.0	22.11275730472056	2.164220861942177	0.0
441	17.64	22.0330735399562	2.05213652848297	0.0	21.93430599262352	2.042081378483837	0.0	21.90315461291495	1.6955295636283851	0.0	21.86740681957851	1.3220635126267022	0.0	21.872373209697844	1.2478573701694882	0.0	21.820896893727003	1.2498375912165038	0.0	21.87042684351037	1.2760994984632557	0.0	22.117046891137377	2.037773139855277	0.0	22.12120628044877	1.690955588425043	0.0	22.121132123632627	1.3154077569524523	0.0	22.141780276061393	1.249123060937701	0.0	22.17605800764629	1.2529134081091273	0.0	22.092636193866955	1.2699309197499926	0.0	22.04997149237328	2.5580793541802174	0.0	22.052903982517265	2.778123678167351	0.0	22.046040861299524	2.6555570105436948	0.0	21.87980568166588	2.468334041748733	0.0	21.835442542294686	2.2648516950589768	0.0	21.96133604020895	2.164172790782264	0.0	22.209715966029947	2.4604760187533574	0.0	22.228373053934657	2.2494947905909464	0.0	22.11113942619032	2.165004488521567	0.0
442	17.68	22.032444512236196	2.0513929783681686	0.0	21.933529680835058	2.0420030829204148	0.0	21.902762884034917	1.6990414754089553	0.0	21.86517351520037	1.3250423040832164	0.0	21.874856361110503	1.2471948081461655	0.0	21.82458863571794	1.2506691129588812	0.0	21.87008652483906	1.278328866027495	0.0	22.116526352872167	2.038059182654505	0.0	22.11854724822339	1.693381410552695	0.0	22.12075647847971	1.316865495901993	0.0	22.143656592609993	1.248713197767541	0.0	22.175767915183147	1.2522351328488464	0.0	22.092818489594077	1.2670604720221414	0.0	22.04833274484569	2.5605066532770926	0.0	22.05172250756809	2.7799398092018075	0.0	22.04606643014083	2.6583059335908117	0.0	21.877232225498886	2.470093507531883	0.0	21.834164703551316	2.2646803369755952	0.0	21.963746837634684	2.165627858920652	0.0	22.207404322497048	2.4624325124399182	0.0	22.227296587677888	2.251736070225918	0.0	22.110810920469966	2.1680146259625412	0.0
443	17.72	22.031924668156897	2.0499692880173894	0.0	21.93504627673691	2.038470830619862	0.0	21.90374461989124	1.695371754798634	0.0	21.867491911654124	1.321360255928412	0.0	21.87321048439442	1.2475101665450343	0.0	21.82635978116054	1.2519006332001648	0.0	21.8700503561305	1.275738392539449	0.0	22.116497748656457	2.0340370017339175	0.0	22.120179395128673	1.6907757849721134	0.0	22.121851033692003	1.3146950404587332	0.0	22.14265240537791	1.2491483140237118	0.0	22.177584958360537	1.2535589411802326	0.0	22.094173786099823	1.2673458663832502	0.0	22.04884324610915	2.558732032576104	0.0	22.052090037812487	2.7795999979363093	0.0	22.047260694985376	2.655512561107215	0.0	21.878831169689	2.469799626340857	0.0	21.83702771566775	2.261720102371344	0.0	21.96643346447014	2.1660174809276524	0.0	22.208281168974036	2.462833785640262	0.0	22.22972622538227	2.2468421046492657	0.0	22.109348627687172	2.1679822835003217	0.0
444	17.76	22.03092130722195	2.046845271626987	0.0	21.935421008765978	2.0316204271951817	0.0	21.90365866113818	1.6881233727240343	0.0	21.86964689501917	1.3171558787466957	0.0	21.865507066125367	1.2476903349956385	0.0	21.820717536870642	1.251820112124147	0.0	21.870368167555398	1.2723675183999144	0.0	22.11570996565669	2.0265740706358724	0.0	22.122539810648902	1.6850608164895688	0.0	22.122974000967083	1.3133356174644581	0.0	22.141302199325203	1.2506236715300127	0.0	22.178762062348074	1.2553224941603567	0.0	22.095521775043196	1.269105557529001	0.0	22.048824034284525	2.5575942697788374	0.0	22.05184966656557	2.7799995307953345	0.0	22.04671823929831	2.653523208616302	0.0	21.88010688354587	2.468397338423345	0.0	21.838403241764453	2.256677842521208	0.0	21.964000982977186	2.1613636282444895	0.0	22.209625892140448	2.4618092871637822	0.0	22.231820493096496	2.2383256697592016	0.0	22.10689330207728	2.1643591228752155	0.0
445	17.8	22.0293739818148	2.0446834280755892	0.0	21.93266485009636	2.0272276865817322	0.0	21.901364155225377	1.6864607231853306	0.0	21.86833438968613	1.320319004400961	0.0	21.86077444364916	1.2474256443979832	0.0	21.815521006442165	1.2502869958414644	0.0	21.872340696088276	1.2744419027122482	0.0	22.11389729510481	2.0228315145686993	0.0	22.121495015308923	1.6834847451035042	0.0	22.121130174054496	1.3173811026882443	0.0	22.141910094984564	1.2514729411177963	0.0	22.176992921172783	1.2560094027576967	0.0	22.095207035791667	1.2700020387384081	0.0	22.046243134738656	2.560831186288418	0.0	22.049472861645746	2.7831248580376973	0.0	22.04476041725086	2.6574377651791847	0.0	21.87827929686075	2.4681225776134945	0.0	21.834479916602028	2.2531817124905906	0.0	21.953994169104813	2.1525969439799986	0.0	22.207979578537703	2.461264443688067	0.0	22.229252815357107	2.234069943131148	0.0	22.10516101002306	2.160734379409455	0.0
446	17.84	22.028578394097924	2.0455950550436746	0.0	21.930700298184707	2.028017882005166	0.0	21.89980254088208	1.688418200450084	0.0	21.866567170784965	1.3245342502259991	0.0	21.861322593979196	1.2475976795871273	0.0	21.815686207184118	1.2497090440795848	0.0	21.874711579663643	1.2779222414856768	0.0	22.113031329293264	2.0242793155587853	0.0	22.11999021570463	1.684793671729906	0.0	22.11851332681463	1.3201701473124519	0.0	22.1417230632186	1.2505440798142058	0.0	22.17478612979912	1.2553855631077666	0.0	22.094327158064726	1.2704712898739094	0.0	22.04448724785799	2.5632087733577964	0.0	22.04788391517656	2.7843330276103844	0.0	22.043796532656774	2.660034581376488	0.0	21.876612397817553	2.4686466386241435	0.0	21.83144950354973	2.2513924111890353	0.0	21.946172234324223	2.145412370118365	0.0	22.20565713057943	2.460927866067874	0.0	22.225757102869252	2.234490031503006	0.0	22.10516491919354	2.1583858979009762	0.0
447	17.88	22.029441713506444	2.0466807960161297	0.0	21.932303323259873	2.029615190170673	0.0	21.900916290347094	1.6864340285757606	0.0	21.867269388095018	1.320705367903255	0.0	21.861621415330376	1.2477284103503168	0.0	21.816645995663233	1.2505831722880727	0.0	21.874940444869083	1.2760005893907083	0.0	22.114265469192166	2.02519989208671	0.0	22.121637765803346	1.6830474782945135	0.0	22.11934221638581	1.3156442646511377	0.0	22.140328657236303	1.2482047499309024	0.0	22.17644312000414	1.254085956592739	0.0	22.094137763520056	1.2703077709083224	0.0	22.046417206825822	2.5601151481243103	0.0	22.049412403157906	2.780625315211066	0.0	22.044820991348793	2.656199594829468	0.0	21.87748282129695	2.4685793536035585	0.0	21.834001291262826	2.2499288609948365	0.0	21.949241315914726	2.1430589140064513	0.0	22.206442900247698	2.4601335182051445	0.0	22.226468863716274	2.235422904624811	0.0	22.106879436465846	2.1553995199137908	0.0
448	17.92	22.030774467979526	2.0455630280878885	0.0	21.933605537107468	2.0290934504483364	0.0	21.901809283312726	1.6826789824479877	0.0	21.868905978110863	1.3151843403268348	0.0	21.86036828020459	1.2470032152462407	0.0	21.816160353758715	1.2510001659349663	0.0	21.874510416160014	1.272221912997573	0.0	22.115673279000017	2.024016306881301	0.0	22.123709983790853	1.6810852578899176	0.0	22.12159723837465	1.3110368699740829	0.0	22.141210071238273	1.2463533282307515	0.0	22.180553280530155	1.2529581939018972	0.0	22.0935489494545	1.2683162312124143	0.0	22.048680420073712	2.556670607082478	0.0	22.051566914499002	2.77786879814979	0.0	22.046107944214043	2.653262871455984	0.0	21.87818489777763	2.467828183698835	0.0	21.835216089379273	2.248718321976962	0.0	21.953714257276676	2.142222469342354	0.0	22.208165955827685	2.4604663040144796	0.0	22.228479284494924	2.2358977951950396	0.0	22.10877539503874	2.1517082857273215	0.0
